<svg width="129" height="38" viewBox="0 0 109 38" fill="none" xmlns="http://www.w3.org/2000/svg">
<style>
  path, text {
      fill: #000;
  }
  @media (prefers-color-scheme: dark) {
      path, text {
          fill: #c9d1d9;
      }
  }
  .good-logo {
    font-family: -apple-system,BlinkMacSystemFont,Segoe UI,Helvetica,Arial,sans-serif,Apple Color Emoji,Segoe UI Emoji;
    font-size: 2em;
  }
  </style>
<path d="M24.5 6.75C24.9641 6.75 25.4092 6.93437 25.7374 7.26256C26.0656 7.59075 26.25 8.03587 26.25 8.5V29.5C26.25 29.9641 26.0656 30.4092 25.7374 30.7374C25.4092 31.0656 24.9641 31.25 24.5 31.25H3.5C3.03587 31.25 2.59075 31.0656 2.26256 30.7374C1.93437 30.4092 1.75 29.9641 1.75 29.5V8.5C1.75 8.03587 1.93437 7.59075 2.26256 7.26256C2.59075 6.93437 3.03587 6.75 3.5 6.75H24.5ZM3.5 5C2.57174 5 1.6815 5.36875 1.02513 6.02513C0.368749 6.6815 0 7.57174 0 8.5L0 29.5C0 30.4283 0.368749 31.3185 1.02513 31.9749C1.6815 32.6313 2.57174 33 3.5 33H24.5C25.4283 33 26.3185 32.6313 26.9749 31.9749C27.6313 31.3185 28 30.4283 28 29.5V8.5C28 7.57174 27.6313 6.6815 26.9749 6.02513C26.3185 5.36875 25.4283 5 24.5 5H3.5Z" fill="black"/>
<path d="M19.1975 13.6975C19.4424 13.4547 19.773 13.3181 20.1179 13.3171C20.4627 13.3162 20.7941 13.451 21.0403 13.6924C21.2866 13.9338 21.4279 14.2625 21.4338 14.6073C21.4397 14.9521 21.3096 15.2853 21.0718 15.535L14.0858 24.2675C13.9657 24.3968 13.8208 24.5006 13.6597 24.5726C13.4986 24.6447 13.3246 24.6835 13.1482 24.6868C12.9718 24.69 12.7965 24.6577 12.6328 24.5917C12.4692 24.5256 12.3205 24.4273 12.1958 24.3025L7.567 19.672C7.43805 19.5518 7.33462 19.4069 7.26288 19.2459C7.19115 19.0849 7.15258 18.9111 7.14947 18.7349C7.14636 18.5587 7.17877 18.3836 7.24479 18.2202C7.3108 18.0568 7.40905 17.9083 7.53368 17.7837C7.65832 17.6591 7.80678 17.5608 7.97021 17.4948C8.13363 17.4288 8.30869 17.3964 8.48492 17.3995C8.66115 17.4026 8.83494 17.4411 8.99594 17.5129C9.15694 17.5846 9.30184 17.6881 9.422 17.817L13.0865 21.4798L19.1643 13.736C19.1751 13.7224 19.1868 13.7096 19.1993 13.6975H19.1975Z" fill="black"/>
<text x="32" y="30" class="good-logo" >Good</text>
</svg>
