<svg width="109" height="38" viewBox="0 0 109 38" fill="none" xmlns="http://www.w3.org/2000/svg">
<style>
  path {
      fill: #000;
  }
  @media (prefers-color-scheme: dark) {
      path {
          fill: #CCC;
      }
  }
  </style>
<path d="M24.5 6.75C24.9641 6.75 25.4092 6.93437 25.7374 7.26256C26.0656 7.59075 26.25 8.03587 26.25 8.5V29.5C26.25 29.9641 26.0656 30.4092 25.7374 30.7374C25.4092 31.0656 24.9641 31.25 24.5 31.25H3.5C3.03587 31.25 2.59075 31.0656 2.26256 30.7374C1.93437 30.4092 1.75 29.9641 1.75 29.5V8.5C1.75 8.03587 1.93437 7.59075 2.26256 7.26256C2.59075 6.93437 3.03587 6.75 3.5 6.75H24.5ZM3.5 5C2.57174 5 1.6815 5.36875 1.02513 6.02513C0.368749 6.6815 0 7.57174 0 8.5L0 29.5C0 30.4283 0.368749 31.3185 1.02513 31.9749C1.6815 32.6313 2.57174 33 3.5 33H24.5C25.4283 33 26.3185 32.6313 26.9749 31.9749C27.6313 31.3185 28 30.4283 28 29.5V8.5C28 7.57174 27.6313 6.6815 26.9749 6.02513C26.3185 5.36875 25.4283 5 24.5 5H3.5Z" fill="black"/>
<path d="M19.1975 13.6975C19.4424 13.4547 19.773 13.3181 20.1179 13.3171C20.4627 13.3162 20.7941 13.451 21.0403 13.6924C21.2866 13.9338 21.4279 14.2625 21.4338 14.6073C21.4397 14.9521 21.3096 15.2853 21.0718 15.535L14.0858 24.2675C13.9657 24.3968 13.8208 24.5006 13.6597 24.5726C13.4986 24.6447 13.3246 24.6835 13.1482 24.6868C12.9718 24.69 12.7965 24.6577 12.6328 24.5917C12.4692 24.5256 12.3205 24.4273 12.1958 24.3025L7.567 19.672C7.43805 19.5518 7.33462 19.4069 7.26288 19.2459C7.19115 19.0849 7.15258 18.9111 7.14947 18.7349C7.14636 18.5587 7.17877 18.3836 7.24479 18.2202C7.3108 18.0568 7.40905 17.9083 7.53368 17.7837C7.65832 17.6591 7.80678 17.5608 7.97021 17.4948C8.13363 17.4288 8.30869 17.3964 8.48492 17.3995C8.66115 17.4026 8.83494 17.4411 8.99594 17.5129C9.15694 17.5846 9.30184 17.6881 9.422 17.817L13.0865 21.4798L19.1643 13.736C19.1751 13.7224 19.1868 13.7096 19.1993 13.6975H19.1975Z" fill="black"/>
<path d="M51.75 27.0469C50.9271 28.1198 49.7865 28.9323 48.3281 29.4844C46.8698 30.0365 45.2135 30.3125 43.3594 30.3125C41.4531 30.3125 39.7656 29.8802 38.2969 29.0156C36.8281 28.151 35.6927 26.9167 34.8906 25.3125C34.099 23.6979 33.6875 21.8177 33.6562 19.6719V17.8906C33.6562 14.4531 34.4792 11.7708 36.125 9.84375C37.7708 7.90625 40.0677 6.9375 43.0156 6.9375C45.5469 6.9375 47.5573 7.5625 49.0469 8.8125C50.5365 10.0625 51.4323 11.8646 51.7344 14.2188H47.8594C47.4219 11.4792 45.8333 10.1094 43.0938 10.1094C41.3229 10.1094 39.974 10.75 39.0469 12.0312C38.1302 13.3021 37.6562 15.1719 37.625 17.6406V19.3906C37.625 21.849 38.1406 23.7604 39.1719 25.125C40.2135 26.4792 41.6562 27.1562 43.5 27.1562C45.5208 27.1562 46.9583 26.6979 47.8125 25.7812V21.3281H43.125V18.3281H51.75V27.0469ZM55.0156 21.3906C55.0156 19.7344 55.3438 18.2448 56 16.9219C56.6562 15.5885 57.5781 14.5677 58.7656 13.8594C59.9531 13.1406 61.3177 12.7812 62.8594 12.7812C65.1406 12.7812 66.9896 13.5156 68.4062 14.9844C69.8333 16.4531 70.6042 18.401 70.7188 20.8281L70.7344 21.7188C70.7344 23.3854 70.4115 24.875 69.7656 26.1875C69.1302 27.5 68.2135 28.5156 67.0156 29.2344C65.8281 29.9531 64.4531 30.3125 62.8906 30.3125C60.5052 30.3125 58.5938 29.5208 57.1562 27.9375C55.7292 26.3438 55.0156 24.224 55.0156 21.5781V21.3906ZM58.8125 21.7188C58.8125 23.4583 59.1719 24.8229 59.8906 25.8125C60.6094 26.7917 61.6094 27.2812 62.8906 27.2812C64.1719 27.2812 65.1667 26.7812 65.875 25.7812C66.5938 24.7812 66.9531 23.3177 66.9531 21.3906C66.9531 19.6823 66.5833 18.3281 65.8438 17.3281C65.1146 16.3281 64.1198 15.8281 62.8594 15.8281C61.6198 15.8281 60.6354 16.3229 59.9062 17.3125C59.1771 18.2917 58.8125 19.7604 58.8125 21.7188ZM73.2344 21.3906C73.2344 19.7344 73.5625 18.2448 74.2188 16.9219C74.875 15.5885 75.7969 14.5677 76.9844 13.8594C78.1719 13.1406 79.5365 12.7812 81.0781 12.7812C83.3594 12.7812 85.2083 13.5156 86.625 14.9844C88.0521 16.4531 88.8229 18.401 88.9375 20.8281L88.9531 21.7188C88.9531 23.3854 88.6302 24.875 87.9844 26.1875C87.349 27.5 86.4323 28.5156 85.2344 29.2344C84.0469 29.9531 82.6719 30.3125 81.1094 30.3125C78.724 30.3125 76.8125 29.5208 75.375 27.9375C73.9479 26.3438 73.2344 24.224 73.2344 21.5781V21.3906ZM77.0312 21.7188C77.0312 23.4583 77.3906 24.8229 78.1094 25.8125C78.8281 26.7917 79.8281 27.2812 81.1094 27.2812C82.3906 27.2812 83.3854 26.7812 84.0938 25.7812C84.8125 24.7812 85.1719 23.3177 85.1719 21.3906C85.1719 19.6823 84.8021 18.3281 84.0625 17.3281C83.3333 16.3281 82.3385 15.8281 81.0781 15.8281C79.8385 15.8281 78.8542 16.3229 78.125 17.3125C77.3958 18.2917 77.0312 19.7604 77.0312 21.7188ZM91.4531 21.4219C91.4531 18.8177 92.0573 16.7292 93.2656 15.1562C94.474 13.5729 96.0938 12.7812 98.125 12.7812C99.9167 12.7812 101.365 13.4062 102.469 14.6562V6H106.266V30H102.828L102.641 28.25C101.505 29.625 99.9896 30.3125 98.0938 30.3125C96.1146 30.3125 94.5104 29.5156 93.2812 27.9219C92.0625 26.3281 91.4531 24.1615 91.4531 21.4219ZM95.25 21.75C95.25 23.4688 95.5781 24.8125 96.2344 25.7812C96.901 26.7396 97.8438 27.2188 99.0625 27.2188C100.615 27.2188 101.75 26.526 102.469 25.1406V17.9219C101.771 16.5677 100.646 15.8906 99.0938 15.8906C97.8646 15.8906 96.9167 16.3802 96.25 17.3594C95.5833 18.3281 95.25 19.7917 95.25 21.75Z" fill="black"/>
</svg>
